<svg xmlns="http://www.w3.org/2000/svg" viewBox="0 0 166.15 166.15"><defs><style>.cls-1,.cls-2,.cls-3{fill:none;stroke-linecap:round;stroke-width:15px;}.cls-1{stroke:#f49739;}.cls-1,.cls-2{stroke-linejoin:round;}.cls-2,.cls-3{stroke:#ffcf2b;}.cls-3{stroke-miterlimit:10;}</style></defs><g id="Layer_2" data-name="Layer 2"><g id="Logo_1" data-name="Logo 1"><g id="Logo"><line id="_1" data-name="1" class="cls-1" x1="98.19" y1="7.5" x2="98.19" y2="7.5"/><line id="_2" data-name="2" class="cls-2" x1="98.19" y1="37.73" x2="128.42" y2="37.73"/><line id="_3" data-name="3" class="cls-1" x1="98.19" y1="67.96" x2="158.65" y2="67.96"/><line id="_4" data-name="4" class="cls-1" x1="128.42" y1="128.42" x2="67.96" y2="128.42"/><line id="_5" data-name="5" class="cls-3" x1="98.19" y1="158.65" x2="98.19" y2="158.65"/><path id="_6" data-name="6" class="cls-3" d="M68,7.5H52.85A15.12,15.12,0,0,0,37.73,22.62h0A15.12,15.12,0,0,0,52.85,37.73h0A15.12,15.12,0,0,1,68,52.85h0A15.12,15.12,0,0,1,52.85,68H22.62A15.12,15.12,0,0,0,7.5,83.08h0A15.12,15.12,0,0,0,22.62,98.19H98.19"/><path id="_7" data-name="7" class="cls-1" d="M68,128.42H52.85a15.12,15.12,0,0,0-15.12,15.12h0a15.11,15.11,0,0,0,15.12,15.11H68"/><line id="_8" data-name="8" class="cls-3" x1="128.42" y1="98.19" x2="158.65" y2="98.19"/></g></g></g></svg>